<?xml version="1.0" encoding="iso-8859-1"?>
<!-- Uploaded to: SVG Repo, www.svgrepo.com, Generator: SVG Repo Mixer Tools -->
<svg height="800px" width="800px" version="1.1" id="Layer_1" xmlns="http://www.w3.org/2000/svg" xmlns:xlink="http://www.w3.org/1999/xlink" 
	 viewBox="0 0 507.221 507.221" xml:space="preserve">
<path style="fill:#54B265;" d="M469.21,258.61l-104-104c-20.8-20.8-48-32-77.2-32c-11.6,0-22.8,2-33.6,5.2l-21.6,15.2l23.6,23.6
	l14.8-10.4c0.4,0,0.4-0.4,0.8-0.4c5.2-1.2,10.8-1.6,16.4-1.6c20.4,0,40,8,54.8,22.8l104,104c14.4,14.4,22.4,33.2,22.8,53.2
	c0.4,19.6-6.8,38-20.4,51.6c-13.2,13.2-31.2,20.4-50.4,20.4c-20.4,0-40-8-54.8-22.8l-40-40l-26-26l-38.4-38.4
	c-23.6-23.6-29.6-59.6-14.8-88l-23.2-23.2c-27.2,41.6-20.8,97.2,15.6,133.6l38.4,38.4l25.6,25.6l40,40c20.8,20.8,48,32,77.2,32
	c27.6,0,53.6-10.4,72.8-29.6c19.6-19.6,30.4-46.4,29.6-74.8C500.81,305.81,489.21,279.01,469.21,258.61z"/>
<path style="fill:#DF5C4E;" d="M289.61,205.81l-35.2-35.2l-26.4-26.4l-42.8-42.8c-20.8-20.8-48-32-77.2-32
	c-27.6,0-53.6,10.4-72.8,29.6c-19.6,19.6-30.4,46.4-29.6,74.8c0.4,28.4,12,54.8,32,75.2l104,104c20.8,20.8,48,32,77.2,32
	c13.6,0,26.8-2.4,39.2-7.6l18.8-10.4l-22.8-22.8l-20.8,7.6c-4.8,0.8-9.6,1.6-14.4,1.6c-20.4,0-40-8-54.8-22.8l-104-104
	c-14.4-14.4-22.4-33.2-22.8-53.2c-0.4-19.6,6.8-38,20.4-51.6c13.2-13.2,31.2-20.4,50.4-20.4c20.4,0,40,8,54.8,22.8l40,40l26,26
	l38,38c14.4,14.4,22.4,33.2,22.8,53.2c0.4,12.4-2.4,24.4-8,34.8l23.2,23.2c11.2-17.2,17.2-37.2,16.8-58.4
	C321.21,252.61,310.01,225.81,289.61,205.81z"/>
<path d="M219.21,391.01c-30.4,0-59.6-12-81.2-34l-104-104c-21.2-21.2-33.2-49.2-34-79.2c-0.4-30,10.8-58,31.6-79.2
	c20.4-20.4,47.6-31.6,76.8-31.6c30.4,0,59.6,12,81.2,34l104,104c21.2,21.2,33.2,49.2,34,79.2c0.4,23.2-6,45.6-18.8,64
	c-1.2,2-3.6,2.4-5.6,1.2c-2-1.2-2.4-3.6-1.2-5.6c12-17.2,18-37.6,17.6-59.2c-0.4-27.6-11.6-54-31.6-73.6l-104-104
	c-20.4-20.4-47.2-31.6-75.6-31.6c-27.2,0-52.4,10.4-71.2,29.2c-19.2,19.2-29.6,45.2-29.2,73.2c0.4,27.6,11.6,54,31.6,73.6l104,104
	c20.4,20.4,47.2,31.6,75.6,31.6c13.2,0,26.4-2.4,38.4-7.2c2-0.8,4.4,0,5.2,2.4c0.8,2,0,4.4-2.4,5.2
	C247.61,388.61,233.61,391.01,219.21,391.01z M219.21,355.41c-21.2,0-40.8-8.4-56-23.6l-104-104c-14.8-14.8-23.2-34-23.6-54.8
	c-0.4-20.4,7.2-39.2,21.2-53.2c13.6-13.6,32-21.2,51.6-21.2c21.2,0,40.8,8.4,56,23.6l104,104c14.8,14.8,23.2,34,23.6,54.8
	c0.4,13.2-2.8,26-8.8,37.2c-1.2,2-3.6,2.8-5.6,1.6c-2-1.2-2.8-3.6-1.6-5.6c5.6-10,8-21.2,8-33.2c-0.4-18.4-8-36-21.2-49.2l-104-104
	c-13.6-13.6-31.6-21.2-50.4-21.2c-17.6,0-34,6.8-46,18.8c-12.4,12.4-19.2,29.2-18.8,47.2c0.4,18.4,8,36,21.2,49.2l104,104
	c13.6,13.6,31.6,21.2,50.4,21.2c4.4,0,8.8-0.4,12.8-1.2c2-0.4,4.4,1.2,4.8,3.2s-1.2,4.4-3.2,4.8
	C228.81,355.01,224.01,355.41,219.21,355.41z"/>
<path d="M398.81,444.21c-30.4,0-59.6-12-81.2-34l-104-104c-38.8-38.8-45.2-99.2-14.8-143.2c1.2-2,3.6-2.4,5.6-1.2
	c2,1.2,2.4,3.6,1.2,5.6c-28,40.8-22.4,96.8,14,133.2l104,104c20.4,20.4,47.2,31.6,75.6,31.6c27.2,0,52.4-10.4,71.2-29.2
	c19.2-19.2,29.6-45.2,29.2-73.2c-0.4-27.6-11.6-54-31.6-73.6l-104-104c-20.4-20.4-47.2-31.6-75.6-31.6c-11.2,0-22.4,2-33.2,5.2
	c-2,0.8-4.4-0.4-5.2-2.4c-0.8-2,0.4-4.4,2.4-5.2c11.2-4,23.2-5.6,35.6-5.6c30.8,0,59.6,12,81.2,34l104,104
	c21.2,21.2,33.2,49.2,34,79.2c0.4,30-10.8,58-31.6,79.2C455.21,433.01,428.01,444.21,398.81,444.21z M398.81,408.61
	c-21.2,0-40.8-8.4-56-23.6l-104-104c-24.8-24.8-30.8-62.4-14.4-91.6c1.2-2,3.6-2.8,5.6-1.6c2,1.2,2.8,3.6,1.6,5.6
	c-14.4,26.4-9.2,60,13.2,82.4l104,104c13.6,13.6,31.6,21.2,50.4,21.2c17.6,0,34-6.8,46-18.8c12.4-12.4,19.2-29.2,18.8-47.2
	c-0.4-18.4-8-36-21.2-49.2l-104-104c-13.6-13.6-31.6-21.2-50.4-21.2c-5.2,0-10,0.4-14.8,1.6c-2,0.4-4.4-0.8-4.8-3.2
	c-0.4-2,0.8-4.4,3.2-4.8c5.6-1.2,11.2-2,16.8-2c21.2,0,41.2,8.4,56,23.6l104,104c14.8,14.8,23.2,34,23.6,54.8
	c0.4,20.4-7.2,39.2-21.2,53.2C436.81,401.01,418.41,408.61,398.81,408.61z"/>
</svg>